<svg width="600" height="400" viewBox="0 0 600 400" fill="none" xmlns="http://www.w3.org/2000/svg">
  <!-- Background -->
  <rect width="600" height="400" fill="url(#gradient1)"/>
  
  <!-- Decorative Background Elements -->
  <circle cx="100" cy="100" r="80" fill="url(#gradient2)" opacity="0.1"/>
  <circle cx="500" cy="80" r="60" fill="url(#gradient3)" opacity="0.1"/>
  <circle cx="80" cy="320" r="40" fill="url(#gradient4)" opacity="0.1"/>
  
  <!-- Main House -->
  <g transform="translate(200, 150)">
    <!-- House Base -->
    <path d="M0 80L50 20L100 80V120H0V80Z" fill="#2563eb"/>
    <path d="M10 120V140H90V120" stroke="#2563eb" stroke-width="3" fill="none"/>
    
    <!-- Windows -->
    <rect x="20" y="50" width="15" height="20" fill="white" rx="2"/>
    <rect x="65" y="50" width="15" height="20" fill="white" rx="2"/>
    
    <!-- Door -->
    <rect x="40" y="70" width="20" height="50" fill="white" rx="2"/>
    <circle cx="55" cy="95" r="2" fill="#2563eb"/>
    
    <!-- Roof Details -->
    <path d="M50 20L45 15L50 10L55 15L50 20Z" fill="#1d4ed8"/>
  </g>
  
  <!-- Secondary House -->
  <g transform="translate(350, 200)">
    <path d="M0 60L40 15L80 60V90H0V60Z" fill="#3b82f6"/>
    <path d="M8 90V105H72V90" stroke="#3b82f6" stroke-width="2" fill="none"/>
    <rect x="20" y="35" width="12" height="15" fill="white" rx="1"/>
    <rect x="48" y="35" width="12" height="15" fill="white" rx="1"/>
    <rect x="32" y="50" width="16" height="40" fill="white" rx="1"/>
  </g>
  
  <!-- Trees -->
  <g transform="translate(120, 250)">
    <circle cx="20" cy="20" r="15" fill="#16a34a"/>
    <rect x="18" y="35" width="4" height="25" fill="#854d0e"/>
  </g>
  
  <g transform="translate(450, 280)">
    <circle cx="15" cy="15" r="12" fill="#16a34a"/>
    <rect x="13" y="27" width="4" height="20" fill="#854d0e"/>
  </g>
  
  <!-- Search Magnifying Glass -->
  <g transform="translate(300, 80)">
    <circle cx="25" cy="25" r="20" fill="none" stroke="white" stroke-width="3"/>
    <path d="M35 35L45 45" stroke="white" stroke-width="3" stroke-linecap="round"/>
  </g>
  
  <!-- Floating Elements -->
  <g transform="translate(50, 50)">
    <circle cx="0" cy="0" r="8" fill="#60a5fa" opacity="0.8"/>
    <circle cx="20" cy="10" r="6" fill="#93c5fd" opacity="0.6"/>
    <circle cx="40" cy="5" r="4" fill="#bfdbfe" opacity="0.4"/>
  </g>
  
  <g transform="translate(500, 150)">
    <circle cx="0" cy="0" r="6" fill="#60a5fa" opacity="0.8"/>
    <circle cx="15" cy="15" r="4" fill="#93c5fd" opacity="0.6"/>
    <circle cx="30" cy="8" r="3" fill="#bfdbfe" opacity="0.4"/>
  </g>
  
  <!-- Gradients -->
  <defs>
    <linearGradient id="gradient1" x1="0%" y1="0%" x2="100%" y2="100%">
      <stop offset="0%" style="stop-color:#2563eb;stop-opacity:1" />
      <stop offset="100%" style="stop-color:#1e40af;stop-opacity:1" />
    </linearGradient>
    <linearGradient id="gradient2" x1="0%" y1="0%" x2="100%" y2="100%">
      <stop offset="0%" style="stop-color:#3b82f6;stop-opacity:1" />
      <stop offset="100%" style="stop-color:#60a5fa;stop-opacity:1" />
    </linearGradient>
    <linearGradient id="gradient3" x1="0%" y1="0%" x2="100%" y2="100%">
      <stop offset="0%" style="stop-color:#60a5fa;stop-opacity:1" />
      <stop offset="100%" style="stop-color:#93c5fd;stop-opacity:1" />
    </linearGradient>
    <linearGradient id="gradient4" x1="0%" y1="0%" x2="100%" y2="100%">
      <stop offset="0%" style="stop-color:#93c5fd;stop-opacity:1" />
      <stop offset="100%" style="stop-color:#bfdbfe;stop-opacity:1" />
    </linearGradient>
  </defs>
</svg>

