<svg width="32" height="32" viewBox="0 0 32 32" fill="none" xmlns="http://www.w3.org/2000/svg">
  <defs>
    <!-- Premium Gold Gradient -->
    <linearGradient id="goldGradient" x1="0%" y1="0%" x2="100%" y2="100%">
      <stop offset="0%" style="stop-color:#FFD700;stop-opacity:1" />
      <stop offset="50%" style="stop-color:#FFA500;stop-opacity:1" />
      <stop offset="100%" style="stop-color:#FF8C00;stop-opacity:1" />
    </linearGradient>
    
    <!-- Premium Blue Gradient -->
    <linearGradient id="blueGradient" x1="0%" y1="0%" x2="100%" y2="100%">
      <stop offset="0%" style="stop-color:#1e40af;stop-opacity:1" />
      <stop offset="50%" style="stop-color:#1d4ed8;stop-opacity:1" />
      <stop offset="100%" style="stop-color:#2563eb;stop-opacity:1" />
    </linearGradient>
    
    <!-- Dark Glass Gradient -->
    <linearGradient id="darkGlassGradient" x1="0%" y1="0%" x2="100%" y2="100%">
      <stop offset="0%" style="stop-color:#334155;stop-opacity:0.9" />
      <stop offset="50%" style="stop-color:#475569;stop-opacity:0.8" />
      <stop offset="100%" style="stop-color:#64748b;stop-opacity:0.7" />
    </linearGradient>
    
    <!-- Glass Gradient -->
    <linearGradient id="glassGradient" x1="0%" y1="0%" x2="100%" y2="100%">
      <stop offset="0%" style="stop-color:#ffffff;stop-opacity:0.95" />
      <stop offset="50%" style="stop-color:#f8fafc;stop-opacity:0.9" />
      <stop offset="100%" style="stop-color:#e2e8f0;stop-opacity:0.85" />
    </linearGradient>
  </defs>
  
  <!-- Background circle -->
  <circle cx="16" cy="16" r="15" fill="url(#goldGradient)"/>
  <circle cx="16" cy="16" r="13" fill="url(#blueGradient)"/>
  
  <!-- Main building -->
  <rect x="4" y="12" width="6" height="16" fill="url(#darkGlassGradient)"/>
  
  <!-- Building windows -->
  <rect x="5" y="14" width="1" height="1" fill="url(#glassGradient)" opacity="0.9"/>
  <rect x="7" y="14" width="1" height="1" fill="url(#glassGradient)" opacity="0.9"/>
  <rect x="5" y="16" width="1" height="1" fill="url(#glassGradient)" opacity="0.9"/>
  <rect x="7" y="16" width="1" height="1" fill="url(#glassGradient)" opacity="0.9"/>
  <rect x="5" y="18" width="1" height="1" fill="url(#glassGradient)" opacity="0.9"/>
  <rect x="7" y="18" width="1" height="1" fill="url(#glassGradient)" opacity="0.9"/>
  <rect x="5" y="20" width="1" height="1" fill="url(#glassGradient)" opacity="0.9"/>
  <rect x="7" y="20" width="1" height="1" fill="url(#glassGradient)" opacity="0.9"/>
  <rect x="5" y="22" width="1" height="1" fill="url(#glassGradient)" opacity="0.9"/>
  <rect x="7" y="22" width="1" height="1" fill="url(#glassGradient)" opacity="0.9"/>
  <rect x="5" y="24" width="1" height="1" fill="url(#glassGradient)" opacity="0.9"/>
  <rect x="7" y="24" width="1" height="1" fill="url(#glassGradient)" opacity="0.9"/>
  
  <!-- Second building -->
  <rect x="12" y="8" width="5" height="20" fill="url(#darkGlassGradient)" opacity="0.9"/>
  
  <!-- Second building windows -->
  <rect x="13" y="10" width="0.8" height="0.8" fill="url(#glassGradient)" opacity="0.9"/>
  <rect x="14.5" y="10" width="0.8" height="0.8" fill="url(#glassGradient)" opacity="0.9"/>
  <rect x="16" y="10" width="0.8" height="0.8" fill="url(#glassGradient)" opacity="0.9"/>
  <rect x="13" y="11.5" width="0.8" height="0.8" fill="url(#glassGradient)" opacity="0.9"/>
  <rect x="14.5" y="11.5" width="0.8" height="0.8" fill="url(#glassGradient)" opacity="0.9"/>
  <rect x="16" y="11.5" width="0.8" height="0.8" fill="url(#glassGradient)" opacity="0.9"/>
  <rect x="13" y="13" width="0.8" height="0.8" fill="url(#glassGradient)" opacity="0.9"/>
  <rect x="14.5" y="13" width="0.8" height="0.8" fill="url(#glassGradient)" opacity="0.9"/>
  <rect x="16" y="13" width="0.8" height="0.8" fill="url(#glassGradient)" opacity="0.9"/>
  <rect x="13" y="14.5" width="0.8" height="0.8" fill="url(#glassGradient)" opacity="0.9"/>
  <rect x="14.5" y="14.5" width="0.8" height="0.8" fill="url(#glassGradient)" opacity="0.9"/>
  <rect x="16" y="14.5" width="0.8" height="0.8" fill="url(#glassGradient)" opacity="0.9"/>
  <rect x="13" y="16" width="0.8" height="0.8" fill="url(#glassGradient)" opacity="0.9"/>
  <rect x="14.5" y="16" width="0.8" height="0.8" fill="url(#glassGradient)" opacity="0.9"/>
  <rect x="16" y="16" width="0.8" height="0.8" fill="url(#glassGradient)" opacity="0.9"/>
  <rect x="13" y="17.5" width="0.8" height="0.8" fill="url(#glassGradient)" opacity="0.9"/>
  <rect x="14.5" y="17.5" width="0.8" height="0.8" fill="url(#glassGradient)" opacity="0.9"/>
  <rect x="16" y="17.5" width="0.8" height="0.8" fill="url(#glassGradient)" opacity="0.9"/>
  <rect x="13" y="19" width="0.8" height="0.8" fill="url(#glassGradient)" opacity="0.9"/>
  <rect x="14.5" y="19" width="0.8" height="0.8" fill="url(#glassGradient)" opacity="0.9"/>
  <rect x="16" y="19" width="0.8" height="0.8" fill="url(#glassGradient)" opacity="0.9"/>
  <rect x="13" y="20.5" width="0.8" height="0.8" fill="url(#glassGradient)" opacity="0.9"/>
  <rect x="14.5" y="20.5" width="0.8" height="0.8" fill="url(#glassGradient)" opacity="0.9"/>
  <rect x="16" y="20.5" width="0.8" height="0.8" fill="url(#glassGradient)" opacity="0.9"/>
  <rect x="13" y="22" width="0.8" height="0.8" fill="url(#glassGradient)" opacity="0.9"/>
  <rect x="14.5" y="22" width="0.8" height="0.8" fill="url(#glassGradient)" opacity="0.9"/>
  <rect x="16" y="22" width="0.8" height="0.8" fill="url(#glassGradient)" opacity="0.9"/>
  <rect x="13" y="23.5" width="0.8" height="0.8" fill="url(#glassGradient)" opacity="0.9"/>
  <rect x="14.5" y="23.5" width="0.8" height="0.8" fill="url(#glassGradient)" opacity="0.9"/>
  <rect x="16" y="23.5" width="0.8" height="0.8" fill="url(#glassGradient)" opacity="0.9"/>
  
  <!-- Third building -->
  <rect x="19" y="14" width="4" height="14" fill="url(#darkGlassGradient)" opacity="0.85"/>
  
  <!-- Third building windows -->
  <rect x="20" y="16" width="0.8" height="0.8" fill="url(#glassGradient)" opacity="0.9"/>
  <rect x="21.5" y="16" width="0.8" height="0.8" fill="url(#glassGradient)" opacity="0.9"/>
  <rect x="20" y="17.5" width="0.8" height="0.8" fill="url(#glassGradient)" opacity="0.9"/>
  <rect x="21.5" y="17.5" width="0.8" height="0.8" fill="url(#glassGradient)" opacity="0.9"/>
  <rect x="20" y="19" width="0.8" height="0.8" fill="url(#glassGradient)" opacity="0.9"/>
  <rect x="21.5" y="19" width="0.8" height="0.8" fill="url(#glassGradient)" opacity="0.9"/>
  <rect x="20" y="20.5" width="0.8" height="0.8" fill="url(#glassGradient)" opacity="0.9"/>
  <rect x="21.5" y="20.5" width="0.8" height="0.8" fill="url(#glassGradient)" opacity="0.9"/>
  <rect x="20" y="22" width="0.8" height="0.8" fill="url(#glassGradient)" opacity="0.9"/>
  <rect x="21.5" y="22" width="0.8" height="0.8" fill="url(#glassGradient)" opacity="0.9"/>
  <rect x="20" y="23.5" width="0.8" height="0.8" fill="url(#glassGradient)" opacity="0.9"/>
  <rect x="21.5" y="23.5" width="0.8" height="0.8" fill="url(#glassGradient)" opacity="0.9"/>
  
  <!-- Small building (left) -->
  <rect x="2" y="18" width="2" height="10" fill="url(#darkGlassGradient)" opacity="0.8"/>
  
  <!-- Small building windows -->
  <rect x="2.3" y="19" width="0.5" height="0.5" fill="url(#glassGradient)" opacity="0.9"/>
  <rect x="3.1" y="19" width="0.5" height="0.5" fill="url(#glassGradient)" opacity="0.9"/>
  <rect x="2.3" y="20.2" width="0.5" height="0.5" fill="url(#glassGradient)" opacity="0.9"/>
  <rect x="3.1" y="20.2" width="0.5" height="0.5" fill="url(#glassGradient)" opacity="0.9"/>
  <rect x="2.3" y="21.4" width="0.5" height="0.5" fill="url(#glassGradient)" opacity="0.9"/>
  <rect x="3.1" y="21.4" width="0.5" height="0.5" fill="url(#glassGradient)" opacity="0.9"/>
  <rect x="2.3" y="22.6" width="0.5" height="0.5" fill="url(#glassGradient)" opacity="0.9"/>
  <rect x="3.1" y="22.6" width="0.5" height="0.5" fill="url(#glassGradient)" opacity="0.9"/>
  
  <!-- Small building (right) -->
  <rect x="24" y="20" width="2" height="8" fill="url(#darkGlassGradient)" opacity="0.75"/>
  
  <!-- Small building windows -->
  <rect x="24.3" y="21" width="0.5" height="0.5" fill="url(#glassGradient)" opacity="0.9"/>
  <rect x="25.1" y="21" width="0.5" height="0.5" fill="url(#glassGradient)" opacity="0.9"/>
  <rect x="24.3" y="22.2" width="0.5" height="0.5" fill="url(#glassGradient)" opacity="0.9"/>
  <rect x="25.1" y="22.2" width="0.5" height="0.5" fill="url(#glassGradient)" opacity="0.9"/>
  <rect x="24.3" y="23.4" width="0.5" height="0.5" fill="url(#glassGradient)" opacity="0.9"/>
  <rect x="25.1" y="23.4" width="0.5" height="0.5" fill="url(#glassGradient)" opacity="0.9"/>
  <rect x="24.3" y="24.6" width="0.5" height="0.5" fill="url(#glassGradient)" opacity="0.9"/>
  <rect x="25.1" y="24.6" width="0.5" height="0.5" fill="url(#glassGradient)" opacity="0.9"/>
</svg>
