<svg width="300" height="200" viewBox="0 0 300 200" xmlns="http://www.w3.org/2000/svg">
  <defs>
    <linearGradient id="bgGradient" x1="0%" y1="0%" x2="100%" y2="100%">
      <stop offset="0%" style="stop-color:#f8fafc;stop-opacity:1" />
      <stop offset="100%" style="stop-color:#e2e8f0;stop-opacity:1" />
    </linearGradient>
    <linearGradient id="buildingGradient" x1="0%" y1="0%" x2="100%" y2="100%">
      <stop offset="0%" style="stop-color:#cbd5e1;stop-opacity:0.6" />
      <stop offset="100%" style="stop-color:#94a3b8;stop-opacity:0.6" />
    </linearGradient>
    <linearGradient id="networkGradient" x1="0%" y1="0%" x2="100%" y2="100%">
      <stop offset="0%" style="stop-color:#fbbf24;stop-opacity:0.4" />
      <stop offset="100%" style="stop-color:#f59e0b;stop-opacity:0.4" />
    </linearGradient>
  </defs>
  
  <!-- Background -->
  <rect width="300" height="200" fill="url(#bgGradient)"/>
  
  <!-- Main Building -->
  <g transform="translate(100, 60)">
    <rect x="0" y="10" width="20" height="40" fill="url(#buildingGradient)"/>
    <!-- Building Windows -->
    <rect x="2" y="12" width="3" height="3" fill="#94a3b8" opacity="0.6"/>
    <rect x="6" y="12" width="3" height="3" fill="#94a3b8" opacity="0.6"/>
    <rect x="10" y="12" width="3" height="3" fill="#94a3b8" opacity="0.6"/>
    <rect x="14" y="12" width="3" height="3" fill="#94a3b8" opacity="0.6"/>
    <rect x="18" y="12" width="1" height="3" fill="#94a3b8" opacity="0.6"/>
    
    <rect x="2" y="17" width="3" height="3" fill="#94a3b8" opacity="0.6"/>
    <rect x="6" y="17" width="3" height="3" fill="#94a3b8" opacity="0.6"/>
    <rect x="10" y="17" width="3" height="3" fill="#94a3b8" opacity="0.6"/>
    <rect x="14" y="17" width="3" height="3" fill="#94a3b8" opacity="0.6"/>
    <rect x="18" y="17" width="1" height="3" fill="#94a3b8" opacity="0.6"/>
    
    <rect x="2" y="22" width="3" height="3" fill="#94a3b8" opacity="0.6"/>
    <rect x="6" y="22" width="3" height="3" fill="#94a3b8" opacity="0.6"/>
    <rect x="10" y="22" width="3" height="3" fill="#94a3b8" opacity="0.6"/>
    <rect x="14" y="22" width="3" height="3" fill="#94a3b8" opacity="0.6"/>
    <rect x="18" y="22" width="1" height="3" fill="#94a3b8" opacity="0.6"/>
    
    <rect x="2" y="27" width="3" height="3" fill="#94a3b8" opacity="0.6"/>
    <rect x="6" y="27" width="3" height="3" fill="#94a3b8" opacity="0.6"/>
    <rect x="10" y="27" width="3" height="3" fill="#94a3b8" opacity="0.6"/>
    <rect x="14" y="27" width="3" height="3" fill="#94a3b8" opacity="0.6"/>
    <rect x="18" y="27" width="1" height="3" fill="#94a3b8" opacity="0.6"/>
    
    <rect x="2" y="32" width="3" height="3" fill="#94a3b8" opacity="0.6"/>
    <rect x="6" y="32" width="3" height="3" fill="#94a3b8" opacity="0.6"/>
    <rect x="10" y="32" width="3" height="3" fill="#94a3b8" opacity="0.6"/>
    <rect x="14" y="32" width="3" height="3" fill="#94a3b8" opacity="0.6"/>
    <rect x="18" y="32" width="1" height="3" fill="#94a3b8" opacity="0.6"/>
    
    <rect x="2" y="37" width="3" height="3" fill="#94a3b8" opacity="0.6"/>
    <rect x="6" y="37" width="3" height="3" fill="#94a3b8" opacity="0.6"/>
    <rect x="10" y="37" width="3" height="3" fill="#94a3b8" opacity="0.6"/>
    <rect x="14" y="37" width="3" height="3" fill="#94a3b8" opacity="0.6"/>
    <rect x="18" y="37" width="1" height="3" fill="#94a3b8" opacity="0.6"/>
    
    <!-- Rooftop -->
    <polygon points="0,10 10,5 20,10" fill="url(#buildingGradient)"/>
    
    <!-- Smaller Building -->
    <rect x="25" y="15" width="15" height="35" fill="url(#buildingGradient)" opacity="0.8"/>
    <rect x="27" y="17" width="2" height="2" fill="#94a3b8" opacity="0.6"/>
    <rect x="30" y="17" width="2" height="2" fill="#94a3b8" opacity="0.6"/>
    <rect x="33" y="17" width="2" height="2" fill="#94a3b8" opacity="0.6"/>
    <rect x="36" y="17" width="1" height="2" fill="#94a3b8" opacity="0.6"/>
    
    <rect x="27" y="21" width="2" height="2" fill="#94a3b8" opacity="0.6"/>
    <rect x="30" y="21" width="2" height="2" fill="#94a3b8" opacity="0.6"/>
    <rect x="33" y="21" width="2" height="2" fill="#94a3b8" opacity="0.6"/>
    <rect x="36" y="21" width="1" height="2" fill="#94a3b8" opacity="0.6"/>
    
    <rect x="27" y="25" width="2" height="2" fill="#94a3b8" opacity="0.6"/>
    <rect x="30" y="25" width="2" height="2" fill="#94a3b8" opacity="0.6"/>
    <rect x="33" y="25" width="2" height="2" fill="#94a3b8" opacity="0.6"/>
    <rect x="36" y="25" width="1" height="2" fill="#94a3b8" opacity="0.6"/>
    
    <rect x="27" y="29" width="2" height="2" fill="#94a3b8" opacity="0.6"/>
    <rect x="30" y="29" width="2" height="2" fill="#94a3b8" opacity="0.6"/>
    <rect x="33" y="29" width="2" height="2" fill="#94a3b8" opacity="0.6"/>
    <rect x="36" y="29" width="1" height="2" fill="#94a3b8" opacity="0.6"/>
    
    <rect x="27" y="33" width="2" height="2" fill="#94a3b8" opacity="0.6"/>
    <rect x="30" y="33" width="2" height="2" fill="#94a3b8" opacity="0.6"/>
    <rect x="33" y="33" width="2" height="2" fill="#94a3b8" opacity="0.6"/>
    <rect x="36" y="33" width="1" height="2" fill="#94a3b8" opacity="0.6"/>
    
    <rect x="27" y="37" width="2" height="2" fill="#94a3b8" opacity="0.6"/>
    <rect x="30" y="37" width="2" height="2" fill="#94a3b8" opacity="0.6"/>
    <rect x="33" y="37" width="2" height="2" fill="#94a3b8" opacity="0.6"/>
    <rect x="36" y="37" width="1" height="2" fill="#94a3b8" opacity="0.6"/>
    
    <rect x="27" y="41" width="2" height="2" fill="#94a3b8" opacity="0.6"/>
    <rect x="30" y="41" width="2" height="2" fill="#94a3b8" opacity="0.6"/>
    <rect x="33" y="41" width="2" height="2" fill="#94a3b8" opacity="0.6"/>
    <rect x="36" y="41" width="1" height="2" fill="#94a3b8" opacity="0.6"/>
    
    <polygon points="25,15 32.5,10 40,15" fill="url(#buildingGradient)" opacity="0.8"/>
    
    <!-- Network Connection Lines -->
    <line x1="20" y1="30" x2="25" y2="32" stroke="url(#networkGradient)" stroke-width="1" opacity="0.4"/>
    <line x1="10" y1="50" x2="32.5" y2="50" stroke="url(#networkGradient)" stroke-width="0.8" opacity="0.3"/>
    
    <!-- Network Nodes -->
    <circle cx="20" cy="30" r="1" fill="url(#networkGradient)"/>
    <circle cx="25" cy="32" r="1" fill="url(#networkGradient)"/>
    <circle cx="10" cy="50" r="0.8" fill="url(#networkGradient)"/>
    <circle cx="32.5" cy="50" r="0.8" fill="url(#networkGradient)"/>
  </g>
  
  <!-- Question Mark -->
  <circle cx="150" cy="140" r="15" fill="#e2e8f0" stroke="#cbd5e1" stroke-width="2"/>
  <text x="150" y="148" text-anchor="middle" font-family="'Segoe UI', Tahoma, Geneva, Verdana, sans-serif" font-size="20" font-weight="bold" fill="#64748b">?</text>
  
  <!-- Text -->
  <text x="150" y="180" text-anchor="middle" font-family="'Segoe UI', Tahoma, Geneva, Verdana, sans-serif" font-size="14" font-weight="bold" fill="#64748b">No Properties Found</text>
</svg>

