<svg width="32" height="32" viewBox="0 0 32 32" xmlns="http://www.w3.org/2000/svg">
  <defs>
    <!-- Premium Gold Gradient -->
    <linearGradient id="goldGradient" x1="0%" y1="0%" x2="100%" y2="100%">
      <stop offset="0%" style="stop-color:#FFD700;stop-opacity:1" />
      <stop offset="50%" style="stop-color:#FFA500;stop-opacity:1" />
      <stop offset="100%" style="stop-color:#FF8C00;stop-opacity:1" />
    </linearGradient>
    
    <!-- Premium Blue Gradient -->
    <linearGradient id="blueGradient" x1="0%" y1="0%" x2="100%" y2="100%">
      <stop offset="0%" style="stop-color:#1e40af;stop-opacity:1" />
      <stop offset="50%" style="stop-color:#1d4ed8;stop-opacity:1" />
      <stop offset="100%" style="stop-color:#2563eb;stop-opacity:1" />
    </linearGradient>
    
    <!-- Glass Gradient -->
    <linearGradient id="glassGradient" x1="0%" y1="0%" x2="100%" y2="100%">
      <stop offset="0%" style="stop-color:#ffffff;stop-opacity:0.95" />
      <stop offset="50%" style="stop-color:#f8fafc;stop-opacity:0.9" />
      <stop offset="100%" style="stop-color:#e2e8f0;stop-opacity:0.85" />
    </linearGradient>
    
    <!-- Dark Glass Gradient -->
    <linearGradient id="darkGlassGradient" x1="0%" y1="0%" x2="100%" y2="100%">
      <stop offset="0%" style="stop-color:#334155;stop-opacity:0.9" />
      <stop offset="50%" style="stop-color:#475569;stop-opacity:0.8" />
      <stop offset="100%" style="stop-color:#64748b;stop-opacity:0.7" />
    </linearGradient>
  </defs>
  
  <!-- Background circle with premium effect -->
  <circle cx="16" cy="16" r="15" fill="url(#goldGradient)"/>
  <circle cx="16" cy="16" r="13" fill="url(#blueGradient)"/>
  
  <!-- Mini Skyline -->
  <g transform="translate(6, 8)">
    <!-- Tallest Building (Center) -->
    <rect x="4" y="3" width="4" height="9" fill="url(#darkGlassGradient)"/>
    <!-- Windows -->
    <rect x="4.5" y="4" width="0.8" height="0.8" fill="url(#glassGradient)" opacity="0.9"/>
    <rect x="5.8" y="4" width="0.8" height="0.8" fill="url(#glassGradient)" opacity="0.9"/>
    <rect x="4.5" y="5.5" width="0.8" height="0.8" fill="url(#glassGradient)" opacity="0.9"/>
    <rect x="5.8" y="5.5" width="0.8" height="0.8" fill="url(#glassGradient)" opacity="0.9"/>
    <rect x="4.5" y="7" width="0.8" height="0.8" fill="url(#glassGradient)" opacity="0.9"/>
    <rect x="5.8" y="7" width="0.8" height="0.8" fill="url(#glassGradient)" opacity="0.9"/>
    <rect x="4.5" y="8.5" width="0.8" height="0.8" fill="url(#glassGradient)" opacity="0.9"/>
    <rect x="5.8" y="8.5" width="0.8" height="0.8" fill="url(#glassGradient)" opacity="0.9"/>
    <rect x="4.5" y="10" width="0.8" height="0.8" fill="url(#glassGradient)" opacity="0.9"/>
    <rect x="5.8" y="10" width="0.8" height="0.8" fill="url(#glassGradient)" opacity="0.9"/>
    
    <!-- Left Building -->
    <rect x="1" y="5" width="3" height="7" fill="url(#darkGlassGradient)" opacity="0.9"/>
    <!-- Windows -->
    <rect x="1.5" y="6" width="0.6" height="0.6" fill="url(#glassGradient)" opacity="0.9"/>
    <rect x="2.6" y="6" width="0.6" height="0.6" fill="url(#glassGradient)" opacity="0.9"/>
    <rect x="1.5" y="7.2" width="0.6" height="0.6" fill="url(#glassGradient)" opacity="0.9"/>
    <rect x="2.6" y="7.2" width="0.6" height="0.6" fill="url(#glassGradient)" opacity="0.9"/>
    <rect x="1.5" y="8.4" width="0.6" height="0.6" fill="url(#glassGradient)" opacity="0.9"/>
    <rect x="2.6" y="8.4" width="0.6" height="0.6" fill="url(#glassGradient)" opacity="0.9"/>
    <rect x="1.5" y="9.6" width="0.6" height="0.6" fill="url(#glassGradient)" opacity="0.9"/>
    <rect x="2.6" y="9.6" width="0.6" height="0.6" fill="url(#glassGradient)" opacity="0.9"/>
    
    <!-- Right Building -->
    <rect x="8" y="6" width="3" height="6" fill="url(#darkGlassGradient)" opacity="0.85"/>
    <!-- Windows -->
    <rect x="8.5" y="7" width="0.6" height="0.6" fill="url(#glassGradient)" opacity="0.9"/>
    <rect x="9.6" y="7" width="0.6" height="0.6" fill="url(#glassGradient)" opacity="0.9"/>
    <rect x="8.5" y="8.2" width="0.6" height="0.6" fill="url(#glassGradient)" opacity="0.9"/>
    <rect x="9.6" y="8.2" width="0.6" height="0.6" fill="url(#glassGradient)" opacity="0.9"/>
    <rect x="8.5" y="9.4" width="0.6" height="0.6" fill="url(#glassGradient)" opacity="0.9"/>
    <rect x="9.6" y="9.4" width="0.6" height="0.6" fill="url(#glassGradient)" opacity="0.9"/>
    
    <!-- Small Building (Left) -->
    <rect x="0" y="8" width="2" height="4" fill="url(#darkGlassGradient)" opacity="0.8"/>
    <!-- Windows -->
    <rect x="0.3" y="8.5" width="0.4" height="0.4" fill="url(#glassGradient)" opacity="0.9"/>
    <rect x="1.2" y="8.5" width="0.4" height="0.4" fill="url(#glassGradient)" opacity="0.9"/>
    <rect x="0.3" y="9.2" width="0.4" height="0.4" fill="url(#glassGradient)" opacity="0.9"/>
    <rect x="1.2" y="9.2" width="0.4" height="0.4" fill="url(#glassGradient)" opacity="0.9"/>
    
    <!-- Small Building (Right) -->
    <rect x="10" y="9" width="2" height="3" fill="url(#darkGlassGradient)" opacity="0.75"/>
    <!-- Windows -->
    <rect x="10.3" y="9.5" width="0.4" height="0.4" fill="url(#glassGradient)" opacity="0.9"/>
    <rect x="11.2" y="9.5" width="0.4" height="0.4" fill="url(#glassGradient)" opacity="0.9"/>
    <rect x="10.3" y="10.2" width="0.4" height="0.4" fill="url(#glassGradient)" opacity="0.9"/>
    <rect x="11.2" y="10.2" width="0.4" height="0.4" fill="url(#glassGradient)" opacity="0.9"/>
  </g>
</svg>
