<svg width="400" height="300" viewBox="0 0 400 300" fill="none" xmlns="http://www.w3.org/2000/svg">
  <!-- Background -->
  <rect width="400" height="300" fill="#f8fafc"/>
  
  <!-- Shield Icon -->
  <g transform="translate(50, 50)">
    <path d="M25 5L45 15V35C45 50 35 60 25 65C15 60 5 50 5 35V15L25 5Z" fill="#2563eb"/>
    <path d="M20 35L30 25L35 30L20 45L15 40L20 35Z" fill="white"/>
  </g>
  
  <!-- House with Check -->
  <g transform="translate(150, 50)">
    <path d="M0 40L20 20L40 40V60H0V40Z" fill="#16a34a"/>
    <path d="M8 60V70H32V60" stroke="#16a34a" stroke-width="2" fill="none"/>
    <rect x="15" y="30" width="10" height="15" fill="white" rx="1"/>
    <path d="M18 45L22 49L28 43" stroke="white" stroke-width="2" stroke-linecap="round" stroke-linejoin="round"/>
  </g>
  
  <!-- Clock Icon -->
  <g transform="translate(250, 50)">
    <circle cx="25" cy="25" r="20" fill="#f59e0b"/>
    <circle cx="25" cy="25" r="15" fill="white"/>
    <path d="M25 15V25L30 30" stroke="#f59e0b" stroke-width="2" stroke-linecap="round"/>
    <circle cx="25" cy="25" r="2" fill="#f59e0b"/>
  </g>
  
  <!-- Star Icon -->
  <g transform="translate(350, 50)">
    <path d="M25 5L30 20H45L35 30L40 45L25 35L10 45L15 30L5 20H20L25 5Z" fill="#8b5cf6"/>
  </g>
  
  <!-- Building Complex -->
  <g transform="translate(50, 150)">
    <rect x="0" y="40" width="80" height="60" fill="#64748b"/>
    <rect x="10" y="50" width="15" height="20" fill="#f1f5f9"/>
    <rect x="30" y="50" width="15" height="20" fill="#f1f5f9"/>
    <rect x="50" y="50" width="15" height="20" fill="#f1f5f9"/>
    <rect x="10" y="75" width="15" height="20" fill="#f1f5f9"/>
    <rect x="30" y="75" width="15" height="20" fill="#f1f5f9"/>
    <rect x="50" y="75" width="15" height="20" fill="#f1f5f9"/>
  </g>
  
  <!-- Modern House -->
  <g transform="translate(150, 150)">
    <rect x="0" y="40" width="60" height="60" fill="#3b82f6"/>
    <path d="M0 40L30 20L60 40" fill="#1d4ed8"/>
    <rect x="15" y="50" width="12" height="20" fill="white" rx="1"/>
    <rect x="33" y="50" width="12" height="20" fill="white" rx="1"/>
    <rect x="25" y="70" width="10" height="30" fill="white" rx="1"/>
  </g>
  
  <!-- Apartment Building -->
  <g transform="translate(230, 150)">
    <rect x="0" y="30" width="70" height="70" fill="#475569"/>
    <rect x="5" y="35" width="12" height="15" fill="#f8fafc"/>
    <rect x="22" y="35" width="12" height="15" fill="#f8fafc"/>
    <rect x="39" y="35" width="12" height="15" fill="#f8fafc"/>
    <rect x="56" y="35" width="12" height="15" fill="#f8fafc"/>
    <rect x="5" y="55" width="12" height="15" fill="#f8fafc"/>
    <rect x="22" y="55" width="12" height="15" fill="#f8fafc"/>
    <rect x="39" y="55" width="12" height="15" fill="#f8fafc"/>
    <rect x="56" y="55" width="12" height="15" fill="#f8fafc"/>
    <rect x="5" y="75" width="12" height="15" fill="#f8fafc"/>
    <rect x="22" y="75" width="12" height="15" fill="#f8fafc"/>
    <rect x="39" y="75" width="12" height="15" fill="#f8fafc"/>
    <rect x="56" y="75" width="12" height="15" fill="#f8fafc"/>
  </g>
  
  <!-- Decorative Elements -->
  <circle cx="320" cy="80" r="8" fill="#60a5fa" opacity="0.3"/>
  <circle cx="340" cy="120" r="6" fill="#93c5fd" opacity="0.3"/>
  <circle cx="300" cy="180" r="4" fill="#bfdbfe" opacity="0.3"/>
  
  <!-- Connection Lines -->
  <path d="M90 80L130 80" stroke="#e2e8f0" stroke-width="2" stroke-dasharray="5,5"/>
  <path d="M190 80L230 80" stroke="#e2e8f0" stroke-width="2" stroke-dasharray="5,5"/>
  <path d="M290 80L330 80" stroke="#e2e8f0" stroke-width="2" stroke-dasharray="5,5"/>
</svg>

