<svg width="300" height="200" viewBox="0 0 300 200" fill="none" xmlns="http://www.w3.org/2000/svg">
  <!-- Background -->
  <rect width="300" height="200" fill="#f0fdf4"/>
  
  <!-- Completed House -->
  <g transform="translate(100, 60)">
    <!-- House -->
    <path d="M0 60L30 20L60 60V100H0V60Z" fill="#16a34a"/>
    <path d="M15 100V110H45V100" stroke="#16a34a" stroke-width="2" fill="none"/>
    
    <!-- Windows -->
    <rect x="15" y="30" width="12" height="15" fill="white" rx="1"/>
    <rect x="33" y="30" width="12" height="15" fill="white" rx="1"/>
    
    <!-- Door -->
    <rect x="25" y="50" width="10" height="40" fill="white" rx="1"/>
    
    <!-- Checkmark -->
    <path d="M20 45L28 53L40 41" stroke="white" stroke-width="3" stroke-linecap="round" stroke-linejoin="round"/>
  </g>
  
  <!-- Celebration Elements -->
  <g transform="translate(50, 30)">
    <!-- Confetti -->
    <circle cx="0" cy="0" r="3" fill="#fbbf24">
      <animate attributeName="cy" values="0;-20;0" dur="2s" repeatCount="indefinite"/>
    </circle>
    <circle cx="20" cy="10" r="2" fill="#f59e0b">
      <animate attributeName="cy" values="10;-10;10" dur="1.8s" repeatCount="indefinite"/>
    </circle>
    <circle cx="40" cy="5" r="2" fill="#fbbf24">
      <animate attributeName="cy" values="5;-15;5" dur="2.2s" repeatCount="indefinite"/>
    </circle>
  </g>
  
  <g transform="translate(200, 40)">
    <circle cx="0" cy="0" r="2" fill="#fbbf24">
      <animate attributeName="cy" values="0;-15;0" dur="1.9s" repeatCount="indefinite"/>
    </circle>
    <circle cx="15" cy="8" r="2" fill="#f59e0b">
      <animate attributeName="cy" values="8;-12;8" dur="2.1s" repeatCount="indefinite"/>
    </circle>
    <circle cx="30" cy="3" r="2" fill="#fbbf24">
      <animate attributeName="cy" values="3;-18;3" dur="1.7s" repeatCount="indefinite"/>
    </circle>
  </g>
  
  <!-- Success Checkmark -->
  <g transform="translate(180, 80)">
    <circle cx="25" cy="25" r="20" fill="#16a34a"/>
    <path d="M15 25L22 32L35 18" stroke="white" stroke-width="3" stroke-linecap="round" stroke-linejoin="round"/>
  </g>
  
  <!-- Decorative Elements -->
  <circle cx="30" cy="50" r="4" fill="#bbf7d0" opacity="0.6"/>
  <circle cx="270" cy="70" r="3" fill="#bbf7d0" opacity="0.6"/>
  <circle cx="40" cy="150" r="3" fill="#bbf7d0" opacity="0.6"/>
  <circle cx="260" cy="130" r="4" fill="#bbf7d0" opacity="0.6"/>
  
  <!-- Sparkles -->
  <g transform="translate(80, 120)">
    <path d="M0 0L2 2L0 4L-2 2L0 0Z" fill="#fbbf24">
      <animate attributeName="opacity" values="0.3;1;0.3" dur="1.5s" repeatCount="indefinite"/>
    </path>
  </g>
  
  <g transform="translate(220, 100)">
    <path d="M0 0L2 2L0 4L-2 2L0 0Z" fill="#fbbf24">
      <animate attributeName="opacity" values="0.3;1;0.3" dur="1.8s" repeatCount="indefinite"/>
    </path>
  </g>
  
  <g transform="translate(150, 160)">
    <path d="M0 0L2 2L0 4L-2 2L0 0Z" fill="#fbbf24">
      <animate attributeName="opacity" values="0.3;1;0.3" dur="1.3s" repeatCount="indefinite"/>
    </path>
  </g>
</svg>

